# xmcd
#
# Track frame offsets: 
#        150
#        21431
#        42285
#        62507
#        86312
#        100439
#        117034
#        134252
#        152916
#        175594
#        188262
#        204296
#
# Disc length: 2987 seconds
#
# Revision: 1
# Processed by: cddbd v1.5.2PL0 Copyright (c) Steve Scherf et al.
# Submitted via: ExactAudioCopyFreeDBPlugin 1.0
#
DISCID=8e0ba90c
DTITLE=捷奏 - 民乐中国系列之古筝
DYEAR=2005
DGENRE=Christian Gangsta Rap
TTITLE0=千言万语
TTITLE1=一剪梅
TTITLE2=夜来香
TTITLE3=情人的眼泪
TTITLE4=婚誓
TTITLE5=甜蜜蜜
TTITLE6=小白船
TTITLE7=外婆的彭湾湖
TTITLE8=水上人
TTITLE9=阿佤人民唱情歌
TTITLE10=一个小心愿
TTITLE11=我是天空里的一片云
EXTD=
EXTT0=
EXTT1=
EXTT2=
EXTT3=
EXTT4=
EXTT5=
EXTT6=
EXTT7=
EXTT8=
EXTT9=
EXTT10=
EXTT11=
PLAYORDER=
